<mxfile host="Electron" modified="2023-11-22T11:03:41.617Z" agent="Mozilla/5.0 (Windows NT 10.0; Win64; x64) AppleWebKit/537.36 (KHTML, like Gecko) draw.io/22.1.2 Chrome/114.0.5735.289 Electron/25.9.4 Safari/537.36" etag="H4vfXW-MRGe7hi0OcIAW" version="22.1.2" type="device">
  <diagram name="Page-1" id="1af_plPwHxeJgCsq5g0B">
    <mxGraphModel dx="1418" dy="828" grid="1" gridSize="10" guides="1" tooltips="1" connect="1" arrows="1" fold="1" page="1" pageScale="1" pageWidth="827" pageHeight="1169" math="0" shadow="0">
      <root>
        <mxCell id="0" />
        <mxCell id="1" parent="0" />
        <mxCell id="Aow6YVMiIbhs4skmStFT-1" value="Veuillez entrez votre sexe" style="ellipse;whiteSpace=wrap;html=1;" vertex="1" parent="1">
          <mxGeometry x="360" y="50" width="120" height="80" as="geometry" />
        </mxCell>
        <mxCell id="Aow6YVMiIbhs4skmStFT-2" value="" style="endArrow=classic;html=1;rounded=0;" edge="1" parent="1">
          <mxGeometry width="50" height="50" relative="1" as="geometry">
            <mxPoint x="419.5" y="130" as="sourcePoint" />
            <mxPoint x="419.5" y="190" as="targetPoint" />
          </mxGeometry>
        </mxCell>
        <mxCell id="Aow6YVMiIbhs4skmStFT-3" value="Entrez votre age" style="ellipse;whiteSpace=wrap;html=1;" vertex="1" parent="1">
          <mxGeometry x="360" y="190" width="120" height="80" as="geometry" />
        </mxCell>
        <mxCell id="Aow6YVMiIbhs4skmStFT-4" value="Si sexe = homme +age &amp;gt;20" style="rhombus;whiteSpace=wrap;html=1;fontColor=#000000;fillColor=#ffffc0;strokeColor=#ff0000;" vertex="1" parent="1">
          <mxGeometry x="349.38" y="330" width="141.25" height="70" as="geometry" />
        </mxCell>
        <mxCell id="Aow6YVMiIbhs4skmStFT-7" value="" style="endArrow=classic;html=1;rounded=0;" edge="1" parent="1">
          <mxGeometry width="50" height="50" relative="1" as="geometry">
            <mxPoint x="419.5" y="270" as="sourcePoint" />
            <mxPoint x="419.5" y="330" as="targetPoint" />
          </mxGeometry>
        </mxCell>
        <mxCell id="Aow6YVMiIbhs4skmStFT-8" value="Vous êtes imposable" style="ellipse;whiteSpace=wrap;html=1;" vertex="1" parent="1">
          <mxGeometry x="360.01" y="470" width="120" height="80" as="geometry" />
        </mxCell>
        <mxCell id="Aow6YVMiIbhs4skmStFT-9" value="" style="endArrow=classic;html=1;rounded=0;" edge="1" parent="1">
          <mxGeometry width="50" height="50" relative="1" as="geometry">
            <mxPoint x="419.51" y="400" as="sourcePoint" />
            <mxPoint x="419.51" y="470" as="targetPoint" />
          </mxGeometry>
        </mxCell>
        <mxCell id="Aow6YVMiIbhs4skmStFT-10" value="Si sexe = femme + age&amp;gt;18 etage&amp;lt;35&amp;nbsp;" style="rhombus;whiteSpace=wrap;html=1;fontColor=#000000;fillColor=#ffffc0;strokeColor=#ff0000;" vertex="1" parent="1">
          <mxGeometry x="550" y="327.5" width="140" height="72.5" as="geometry" />
        </mxCell>
        <mxCell id="Aow6YVMiIbhs4skmStFT-13" value="" style="endArrow=classic;html=1;rounded=0;" edge="1" parent="1">
          <mxGeometry width="50" height="50" relative="1" as="geometry">
            <mxPoint x="490" y="364.5" as="sourcePoint" />
            <mxPoint x="550" y="364.5" as="targetPoint" />
          </mxGeometry>
        </mxCell>
        <mxCell id="Aow6YVMiIbhs4skmStFT-14" value="" style="endArrow=classic;html=1;rounded=0;entryX=1;entryY=0.5;entryDx=0;entryDy=0;" edge="1" parent="1" target="Aow6YVMiIbhs4skmStFT-8">
          <mxGeometry width="50" height="50" relative="1" as="geometry">
            <mxPoint x="620" y="400" as="sourcePoint" />
            <mxPoint x="570" y="450" as="targetPoint" />
            <Array as="points">
              <mxPoint x="620" y="510" />
            </Array>
          </mxGeometry>
        </mxCell>
        <mxCell id="Aow6YVMiIbhs4skmStFT-18" value="" style="endArrow=classic;html=1;rounded=0;entryX=1;entryY=0.5;entryDx=0;entryDy=0;" edge="1" parent="1" target="Aow6YVMiIbhs4skmStFT-19">
          <mxGeometry width="50" height="50" relative="1" as="geometry">
            <mxPoint x="690" y="364.5" as="sourcePoint" />
            <mxPoint x="730" y="680" as="targetPoint" />
            <Array as="points">
              <mxPoint x="670" y="680" />
            </Array>
          </mxGeometry>
        </mxCell>
        <mxCell id="Aow6YVMiIbhs4skmStFT-19" value="Vous n&#39;êtes pas imposable" style="ellipse;whiteSpace=wrap;html=1;" vertex="1" parent="1">
          <mxGeometry x="360" y="640" width="120" height="80" as="geometry" />
        </mxCell>
        <mxCell id="Aow6YVMiIbhs4skmStFT-21" value="Fin de l&#39;algorithme" style="ellipse;whiteSpace=wrap;html=1;" vertex="1" parent="1">
          <mxGeometry x="360.01" y="800" width="120" height="80" as="geometry" />
        </mxCell>
        <mxCell id="Aow6YVMiIbhs4skmStFT-22" value="" style="endArrow=classic;html=1;rounded=0;entryX=0.5;entryY=0;entryDx=0;entryDy=0;" edge="1" parent="1" target="Aow6YVMiIbhs4skmStFT-21">
          <mxGeometry width="50" height="50" relative="1" as="geometry">
            <mxPoint x="419.51" y="720" as="sourcePoint" />
            <mxPoint x="419.51" y="790" as="targetPoint" />
          </mxGeometry>
        </mxCell>
        <mxCell id="Aow6YVMiIbhs4skmStFT-25" value="" style="endArrow=classic;html=1;rounded=0;entryX=0;entryY=0.5;entryDx=0;entryDy=0;" edge="1" parent="1" target="Aow6YVMiIbhs4skmStFT-21">
          <mxGeometry width="50" height="50" relative="1" as="geometry">
            <mxPoint x="360" y="509.5" as="sourcePoint" />
            <mxPoint x="270" y="509.5" as="targetPoint" />
            <Array as="points">
              <mxPoint x="270" y="840" />
            </Array>
          </mxGeometry>
        </mxCell>
      </root>
    </mxGraphModel>
  </diagram>
</mxfile>
